<?xml version="1.0" encoding="UTF-8" standalone="no"?>
<!DOCTYPE svg PUBLIC "-//W3C//DTD SVG 1.1//EN"
 "http://www.w3.org/Graphics/SVG/1.1/DTD/svg11.dtd">
<!-- Generated by graphviz version 2.43.0 (0)
 -->
<!-- Title: classes_software_patterns Pages: 1 -->
<svg width="1250pt" height="367pt"
 viewBox="0.00 0.00 1250.00 367.00" xmlns="http://www.w3.org/2000/svg" xmlns:xlink="http://www.w3.org/1999/xlink">
<g id="graph0" class="graph" transform="scale(1 1) rotate(0) translate(4 363)">
<title>classes_software_patterns</title>
<polygon fill="white" stroke="transparent" points="-4,4 -4,-363 1246,-363 1246,4 -4,4"/>
<!-- 0 -->
<g id="node1" class="node">
<title>0</title>
<polygon fill="none" stroke="black" points="197.5,-288.5 197.5,-358.5 251.5,-358.5 251.5,-288.5 197.5,-288.5"/>
<text text-anchor="middle" x="224.5" y="-343.3" font-family="Times,serif" font-size="14.00">ABC</text>
<polyline fill="none" stroke="black" points="197.5,-335.5 251.5,-335.5 "/>
<polyline fill="none" stroke="black" points="197.5,-311.5 251.5,-311.5 "/>
<text text-anchor="middle" x="224.5" y="-296.3" font-family="Times,serif" font-size="14.00"> </text>
</g>
<!-- 1 -->
<g id="node2" class="node">
<title>1</title>
<polygon fill="none" stroke="black" points="734.5,-288.5 734.5,-358.5 806.5,-358.5 806.5,-288.5 734.5,-288.5"/>
<text text-anchor="middle" x="770.5" y="-343.3" font-family="Times,serif" font-size="14.00">Generic</text>
<polyline fill="none" stroke="black" points="734.5,-335.5 806.5,-335.5 "/>
<polyline fill="none" stroke="black" points="734.5,-311.5 806.5,-311.5 "/>
<text text-anchor="middle" x="770.5" y="-296.3" font-family="Times,serif" font-size="14.00"> </text>
</g>
<!-- 2 -->
<g id="node3" class="node">
<title>2</title>
<polygon fill="none" stroke="black" points="868,-22.5 868,-92.5 1015,-92.5 1015,-22.5 868,-22.5"/>
<text text-anchor="middle" x="941.5" y="-77.3" font-family="Times,serif" font-size="14.00" fill="red">InstantiationError</text>
<polyline fill="none" stroke="black" points="868,-69.5 1015,-69.5 "/>
<polyline fill="none" stroke="black" points="868,-45.5 1015,-45.5 "/>
<text text-anchor="middle" x="941.5" y="-30.3" font-family="Times,serif" font-size="14.00" fill="red"> </text>
</g>
<!-- 3 -->
<g id="node4" class="node">
<title>3</title>
<polygon fill="none" stroke="black" points="591,-159.5 591,-243.5 812,-243.5 812,-159.5 591,-159.5"/>
<text text-anchor="middle" x="701.5" y="-228.3" font-family="Times,serif" font-size="14.00">ObjectsPool</text>
<polyline fill="none" stroke="black" points="591,-220.5 812,-220.5 "/>
<text text-anchor="start" x="599" y="-205.3" font-family="Times,serif" font-size="14.00">constructor</text>
<text text-anchor="start" x="599" y="-190.3" font-family="Times,serif" font-size="14.00">user_supplied_callback : dict</text>
<polyline fill="none" stroke="black" points="591,-182.5 812,-182.5 "/>
<text text-anchor="start" x="599" y="-167.3" font-family="Times,serif" font-size="14.00">get_object()</text>
</g>
<!-- 3&#45;&gt;1 -->
<g id="edge1" class="edge">
<title>3&#45;&gt;1</title>
<path fill="none" stroke="black" d="M725.25,-243.8C731.89,-255.36 739.13,-267.95 745.83,-279.6"/>
<polygon fill="none" stroke="black" points="742.81,-281.37 750.83,-288.3 748.88,-277.88 742.81,-281.37"/>
</g>
<!-- 4 -->
<g id="node5" class="node">
<title>4</title>
<polygon fill="none" stroke="black" points="100,-22.5 100,-92.5 183,-92.5 183,-22.5 100,-22.5"/>
<text text-anchor="middle" x="141.5" y="-77.3" font-family="Times,serif" font-size="14.00">Observer</text>
<polyline fill="none" stroke="black" points="100,-69.5 183,-69.5 "/>
<polyline fill="none" stroke="black" points="100,-45.5 183,-45.5 "/>
<text text-anchor="middle" x="141.5" y="-30.3" font-family="Times,serif" font-size="14.00"> </text>
</g>
<!-- 4&#45;&gt;0 -->
<g id="edge2" class="edge">
<title>4&#45;&gt;0</title>
<path fill="none" stroke="black" d="M149.42,-92.83C158.76,-131.85 175.44,-197.23 194.5,-252 197.58,-260.86 201.24,-270.18 204.93,-279.05"/>
<polygon fill="none" stroke="black" points="201.78,-280.6 208.91,-288.44 208.23,-277.87 201.78,-280.6"/>
</g>
<!-- 5 -->
<g id="node6" class="node">
<title>5</title>
<polygon fill="none" stroke="black" points="0,-166.5 0,-236.5 147,-236.5 147,-166.5 0,-166.5"/>
<text text-anchor="middle" x="73.5" y="-221.3" font-family="Times,serif" font-size="14.00">ObserverInterface</text>
<polyline fill="none" stroke="black" points="0,-213.5 147,-213.5 "/>
<polyline fill="none" stroke="black" points="0,-189.5 147,-189.5 "/>
<text text-anchor="start" x="8" y="-174.3" font-family="Times,serif" font-size="14.00">update()</text>
</g>
<!-- 4&#45;&gt;5 -->
<g id="edge3" class="edge">
<title>4&#45;&gt;5</title>
<path fill="none" stroke="black" d="M125.21,-92.51C115.94,-111.87 104.24,-136.31 94.31,-157.04"/>
<polygon fill="none" stroke="black" points="91.05,-155.74 89.89,-166.27 97.37,-158.77 91.05,-155.74"/>
</g>
<!-- 5&#45;&gt;0 -->
<g id="edge4" class="edge">
<title>5&#45;&gt;0</title>
<path fill="none" stroke="black" d="M116.37,-236.57C139.41,-254.88 167.47,-277.18 189.23,-294.47"/>
<polygon fill="none" stroke="black" points="187.23,-297.35 197.24,-300.83 191.59,-291.87 187.23,-297.35"/>
</g>
<!-- 6 -->
<g id="node7" class="node">
<title>6</title>
<polygon fill="none" stroke="black" points="767.5,-22.5 767.5,-92.5 849.5,-92.5 849.5,-22.5 767.5,-22.5"/>
<text text-anchor="middle" x="808.5" y="-77.3" font-family="Times,serif" font-size="14.00">Proxy</text>
<polyline fill="none" stroke="black" points="767.5,-69.5 849.5,-69.5 "/>
<polyline fill="none" stroke="black" points="767.5,-45.5 849.5,-45.5 "/>
<text text-anchor="start" x="775.5" y="-30.3" font-family="Times,serif" font-size="14.00">request()</text>
</g>
<!-- 6&#45;&gt;1 -->
<g id="edge5" class="edge">
<title>6&#45;&gt;1</title>
<path fill="none" stroke="black" d="M829.76,-92.74C851.54,-132.52 879.01,-199.42 854.5,-252 846.08,-270.05 830.52,-285.13 815.05,-296.64"/>
<polygon fill="none" stroke="black" points="812.66,-294.04 806.51,-302.66 816.7,-299.76 812.66,-294.04"/>
</g>
<!-- 8 -->
<g id="node9" class="node">
<title>8</title>
<polygon fill="none" stroke="black" points="397.5,-166.5 397.5,-236.5 573.5,-236.5 573.5,-166.5 397.5,-166.5"/>
<text text-anchor="middle" x="485.5" y="-221.3" font-family="Times,serif" font-size="14.00">ProxySubjectInterface</text>
<polyline fill="none" stroke="black" points="397.5,-213.5 573.5,-213.5 "/>
<polyline fill="none" stroke="black" points="397.5,-189.5 573.5,-189.5 "/>
<text text-anchor="start" x="405.5" y="-174.3" font-family="Times,serif" font-size="14.00">request()</text>
</g>
<!-- 6&#45;&gt;8 -->
<g id="edge6" class="edge">
<title>6&#45;&gt;8</title>
<path fill="none" stroke="black" d="M767.23,-74.2C721.59,-91.83 646.08,-121.83 582.5,-151 574.97,-154.46 567.17,-158.18 559.42,-161.98"/>
<polygon fill="none" stroke="black" points="557.77,-158.89 550.36,-166.46 560.87,-165.17 557.77,-158.89"/>
</g>
<!-- 7 -->
<g id="node8" class="node">
<title>7</title>
<polygon fill="none" stroke="black" points="498.5,-22.5 498.5,-92.5 610.5,-92.5 610.5,-22.5 498.5,-22.5"/>
<text text-anchor="middle" x="554.5" y="-77.3" font-family="Times,serif" font-size="14.00">ProxySubject</text>
<polyline fill="none" stroke="black" points="498.5,-69.5 610.5,-69.5 "/>
<polyline fill="none" stroke="black" points="498.5,-45.5 610.5,-45.5 "/>
<text text-anchor="start" x="506.5" y="-30.3" font-family="Times,serif" font-size="14.00">request()</text>
</g>
<!-- 7&#45;&gt;1 -->
<g id="edge7" class="edge">
<title>7&#45;&gt;1</title>
<path fill="none" stroke="black" d="M610.54,-74.17C685.05,-95.55 808.86,-133.24 821.5,-151 847.53,-187.57 835.33,-209.29 821.5,-252 818.36,-261.7 813.33,-271.19 807.62,-279.9"/>
<polygon fill="none" stroke="black" points="804.59,-278.13 801.74,-288.33 810.33,-282.13 804.59,-278.13"/>
</g>
<!-- 7&#45;&gt;8 -->
<g id="edge8" class="edge">
<title>7&#45;&gt;8</title>
<path fill="none" stroke="black" d="M537.97,-92.51C528.57,-111.87 516.69,-136.31 506.62,-157.04"/>
<polygon fill="none" stroke="black" points="503.35,-155.75 502.13,-166.27 509.65,-158.81 503.35,-155.75"/>
</g>
<!-- 8&#45;&gt;0 -->
<g id="edge9" class="edge">
<title>8&#45;&gt;0</title>
<path fill="none" stroke="black" d="M411.41,-236.57C362.22,-259.18 299.8,-287.88 261,-305.72"/>
<polygon fill="none" stroke="black" points="259.29,-302.65 251.67,-310.01 262.22,-309.01 259.29,-302.65"/>
</g>
<!-- 8&#45;&gt;1 -->
<g id="edge10" class="edge">
<title>8&#45;&gt;1</title>
<path fill="none" stroke="black" d="M549.71,-236.55C560.55,-241.93 571.77,-247.27 582.5,-252 630.08,-272.98 686.04,-293.45 724.46,-306.88"/>
<polygon fill="none" stroke="black" points="723.73,-310.33 734.33,-310.3 726.03,-303.71 723.73,-310.33"/>
</g>
<!-- 9 -->
<g id="node10" class="node">
<title>9</title>
<polygon fill="none" stroke="black" points="907,-159 907,-244 1242,-244 1242,-159 907,-159"/>
<text text-anchor="middle" x="1074.5" y="-228.8" font-family="Times,serif" font-size="14.00">SubclassRegistry</text>
<polyline fill="none" stroke="black" points="907,-221 1242,-221 "/>
<polyline fill="none" stroke="black" points="907,-197 1242,-197 "/>
<text text-anchor="start" x="915" y="-181.8" font-family="Times,serif" font-size="14.00">create(cls, subclass_identifier)</text>
<text text-anchor="start" x="915" y="-166.8" font-family="Times,serif" font-size="14.00">register_as_subclass(cls, subclass_identifier)</text>
</g>
<!-- 9&#45;&gt;1 -->
<g id="edge11" class="edge">
<title>9&#45;&gt;1</title>
<path fill="none" stroke="black" d="M969.03,-244.13C916.91,-264.71 856.71,-288.47 816.39,-304.39"/>
<polygon fill="none" stroke="black" points="814.85,-301.23 806.83,-308.16 817.42,-307.74 814.85,-301.23"/>
</g>
<!-- 10 -->
<g id="node11" class="node">
<title>10</title>
<polygon fill="none" stroke="black" points="236.5,-0.5 236.5,-114.5 374.5,-114.5 374.5,-0.5 236.5,-0.5"/>
<text text-anchor="middle" x="305.5" y="-99.3" font-family="Times,serif" font-size="14.00">Subject</text>
<polyline fill="none" stroke="black" points="236.5,-91.5 374.5,-91.5 "/>
<text text-anchor="start" x="244.5" y="-76.3" font-family="Times,serif" font-size="14.00">state</text>
<polyline fill="none" stroke="black" points="236.5,-68.5 374.5,-68.5 "/>
<text text-anchor="start" x="244.5" y="-53.3" font-family="Times,serif" font-size="14.00">add()</text>
<text text-anchor="start" x="244.5" y="-38.3" font-family="Times,serif" font-size="14.00">attach(observer)</text>
<text text-anchor="start" x="244.5" y="-23.3" font-family="Times,serif" font-size="14.00">detach(observer)</text>
<text text-anchor="start" x="244.5" y="-8.3" font-family="Times,serif" font-size="14.00">notify()</text>
</g>
<!-- 10&#45;&gt;1 -->
<g id="edge12" class="edge">
<title>10&#45;&gt;1</title>
<path fill="none" stroke="black" d="M333.95,-114.86C339.64,-126.7 345.42,-139.19 350.5,-151 369.46,-195.06 351.72,-221.22 388.5,-252 438.87,-294.15 633.75,-312.97 724.06,-319.56"/>
<polygon fill="none" stroke="black" points="724.06,-323.07 734.28,-320.29 724.56,-316.09 724.06,-323.07"/>
</g>
<!-- 11 -->
<g id="node12" class="node">
<title>11</title>
<polygon fill="none" stroke="black" points="203.5,-151.5 203.5,-251.5 341.5,-251.5 341.5,-151.5 203.5,-151.5"/>
<text text-anchor="middle" x="272.5" y="-236.3" font-family="Times,serif" font-size="14.00">SubjectInterface</text>
<polyline fill="none" stroke="black" points="203.5,-228.5 341.5,-228.5 "/>
<polyline fill="none" stroke="black" points="203.5,-204.5 341.5,-204.5 "/>
<text text-anchor="start" x="211.5" y="-189.3" font-family="Times,serif" font-size="14.00">attach(observer)</text>
<text text-anchor="start" x="211.5" y="-174.3" font-family="Times,serif" font-size="14.00">detach(observer)</text>
<text text-anchor="start" x="211.5" y="-159.3" font-family="Times,serif" font-size="14.00">notify()</text>
</g>
<!-- 10&#45;&gt;11 -->
<g id="edge13" class="edge">
<title>10&#45;&gt;11</title>
<path fill="none" stroke="black" d="M292.46,-114.62C290.42,-123.41 288.3,-132.51 286.24,-141.37"/>
<polygon fill="none" stroke="black" points="282.81,-140.69 283.95,-151.22 289.62,-142.27 282.81,-140.69"/>
</g>
<!-- 11&#45;&gt;0 -->
<g id="edge14" class="edge">
<title>11&#45;&gt;0</title>
<path fill="none" stroke="black" d="M252.84,-251.65C249.23,-260.69 245.48,-270.06 241.94,-278.91"/>
<polygon fill="none" stroke="black" points="238.65,-277.69 238.19,-288.27 245.15,-280.29 238.65,-277.69"/>
</g>
<!-- 12 -->
<g id="node13" class="node">
<title>12</title>
<polygon fill="none" stroke="black" points="1033,-22.5 1033,-92.5 1194,-92.5 1194,-22.5 1033,-22.5"/>
<text text-anchor="middle" x="1113.5" y="-77.3" font-family="Times,serif" font-size="14.00" fill="red">UnknownClassError</text>
<polyline fill="none" stroke="black" points="1033,-69.5 1194,-69.5 "/>
<polyline fill="none" stroke="black" points="1033,-45.5 1194,-45.5 "/>
<text text-anchor="middle" x="1113.5" y="-30.3" font-family="Times,serif" font-size="14.00" fill="red"> </text>
</g>
</g>
</svg>
