<?xml version="1.0" encoding="UTF-8" standalone="no"?>
<!DOCTYPE svg PUBLIC "-//W3C//DTD SVG 1.1//EN"
 "http://www.w3.org/Graphics/SVG/1.1/DTD/svg11.dtd">
<!-- Generated by graphviz version 2.43.0 (0)
 -->
<!-- Title: G Pages: 1 -->
<svg width="666pt" height="303pt"
 viewBox="0.00 0.00 666.32 303.43" xmlns="http://www.w3.org/2000/svg" xmlns:xlink="http://www.w3.org/1999/xlink">
<g id="graph0" class="graph" transform="scale(1 1) rotate(0) translate(4 299.43)">
<title>G</title><style>.edge>path:hover{stroke-width:8}</style>
<polygon fill="white" stroke="transparent" points="-4,4 -4,-299.43 662.32,-299.43 662.32,4 -4,4"/>
<!-- abc -->
<g id="node1" class="node">
<title>abc</title><style>.edge>path:hover{stroke-width:8}</style>
<ellipse fill="#ce3b3b" stroke="black" cx="466.66" cy="-277.43" rx="27" ry="18"/>
<text text-anchor="middle" x="466.66" y="-274.93" font-family="Helvetica,sans-Serif" font-size="10.00" fill="#ffffff">abc</text>
</g>
<!-- software_patterns_notification -->
<g id="node4" class="node">
<title>software_patterns_notification</title><style>.edge>path:hover{stroke-width:8}</style>
<ellipse fill="#7ab83d" stroke="black" cx="582.66" cy="-93.21" rx="75.82" ry="21.43"/>
<text text-anchor="middle" x="582.66" y="-96.21" font-family="Helvetica,sans-Serif" font-size="10.00" fill="#000000">software_patterns.</text>
<text text-anchor="middle" x="582.66" y="-85.21" font-family="Helvetica,sans-Serif" font-size="10.00" fill="#000000">notification</text>
</g>
<!-- abc&#45;&gt;software_patterns_notification -->
<g id="edge1" class="edge">
<title>abc&#45;&gt;software_patterns_notification</title><style>.edge>path:hover{stroke-width:8}</style>
<path fill="none" stroke="black" d="M582.66,-150.43C579.39,-142.39 578.39,-133.16 578.48,-124.53"/>
<polygon fill="#ce3b3b" stroke="black" points="581.98,-124.61 579.05,-114.43 575,-124.22 581.98,-124.61"/>
</g>
<!-- software_patterns_proxy -->
<g id="node5" class="node">
<title>software_patterns_proxy</title><style>.edge>path:hover{stroke-width:8}</style>
<ellipse fill="#7ab83d" stroke="black" cx="413.66" cy="-93.21" rx="75.82" ry="21.43"/>
<text text-anchor="middle" x="413.66" y="-96.21" font-family="Helvetica,sans-Serif" font-size="10.00" fill="#000000">software_patterns.</text>
<text text-anchor="middle" x="413.66" y="-85.21" font-family="Helvetica,sans-Serif" font-size="10.00" fill="#000000">proxy</text>
</g>
<!-- abc&#45;&gt;software_patterns_proxy -->
<g id="edge2" class="edge">
<title>abc&#45;&gt;software_patterns_proxy</title><style>.edge>path:hover{stroke-width:8}</style>
<path fill="none" stroke="black" d="M488.81,-266.77C529.45,-247.58 609.41,-202.09 582.66,-151.43"/>
<path fill="none" stroke="black" d="M582.66,-150.43C578.41,-139.96 523.96,-123.13 478,-110.61"/>
<polygon fill="#ce3b3b" stroke="black" points="478.91,-107.23 468.34,-108.01 477.08,-113.99 478.91,-107.23"/>
</g>
<!-- typing -->
<g id="node8" class="node">
<title>typing</title><style>.edge>path:hover{stroke-width:8}</style>
<ellipse fill="#7a24d0" stroke="black" cx="413.66" cy="-205.43" rx="27.84" ry="18"/>
<text text-anchor="middle" x="413.66" y="-202.93" font-family="Helvetica,sans-Serif" font-size="10.00" fill="#ffffff">typing</text>
</g>
<!-- abc&#45;&gt;typing -->
<g id="edge3" class="edge">
<title>abc&#45;&gt;typing</title><style>.edge>path:hover{stroke-width:8}</style>
<path fill="none" stroke="black" d="M454.9,-260.89C448.04,-251.83 439.24,-240.21 431.54,-230.04"/>
<polygon fill="#ce3b3b" stroke="black" points="434.22,-227.78 425.39,-221.92 428.64,-232 434.22,-227.78"/>
</g>
<!-- software_patterns -->
<g id="node2" class="node">
<title>software_patterns</title><style>.edge>path:hover{stroke-width:8}</style>
<ellipse fill="#709d43" stroke="black" cx="328.66" cy="-18" rx="61.44" ry="18"/>
<text text-anchor="middle" x="328.66" y="-15.5" font-family="Helvetica,sans-Serif" font-size="10.00" fill="#000000">software_patterns</text>
</g>
<!-- software_patterns_memoize -->
<g id="node3" class="node">
<title>software_patterns_memoize</title><style>.edge>path:hover{stroke-width:8}</style>
<ellipse fill="#7ab83d" stroke="black" cx="75.66" cy="-93.21" rx="75.82" ry="21.43"/>
<text text-anchor="middle" x="75.66" y="-96.21" font-family="Helvetica,sans-Serif" font-size="10.00" fill="#000000">software_patterns.</text>
<text text-anchor="middle" x="75.66" y="-85.21" font-family="Helvetica,sans-Serif" font-size="10.00" fill="#000000">memoize</text>
</g>
<!-- software_patterns_memoize&#45;&gt;software_patterns -->
<g id="edge4" class="edge">
<title>software_patterns_memoize&#45;&gt;software_patterns</title><style>.edge>path:hover{stroke-width:8}</style>
<path fill="none" stroke="black" d="M126.55,-77.49C170.29,-64.83 233.06,-46.66 277.01,-33.95"/>
<polygon fill="#7ab83d" stroke="black" points="278.01,-37.3 286.65,-31.16 276.07,-30.58 278.01,-37.3"/>
</g>
<!-- software_patterns_notification&#45;&gt;software_patterns -->
<g id="edge5" class="edge">
<title>software_patterns_notification&#45;&gt;software_patterns</title><style>.edge>path:hover{stroke-width:8}</style>
<path fill="none" stroke="black" d="M531.57,-77.49C487.66,-64.83 424.63,-46.66 380.51,-33.95"/>
<polygon fill="#7ab83d" stroke="black" points="381.42,-30.56 370.84,-31.16 379.48,-37.29 381.42,-30.56"/>
</g>
<!-- software_patterns_proxy&#45;&gt;software_patterns -->
<g id="edge6" class="edge">
<title>software_patterns_proxy&#45;&gt;software_patterns</title><style>.edge>path:hover{stroke-width:8}</style>
<path fill="none" stroke="black" d="M390.88,-72.59C379.85,-63.09 366.55,-51.64 355.08,-41.76"/>
<polygon fill="#7ab83d" stroke="black" points="357.34,-39.09 347.48,-35.21 352.77,-44.39 357.34,-39.09"/>
</g>
<!-- software_patterns_subclass_registry -->
<g id="node6" class="node">
<title>software_patterns_subclass_registry</title><style>.edge>path:hover{stroke-width:8}</style>
<ellipse fill="#80c040" stroke="black" cx="244.66" cy="-93.21" rx="75.82" ry="21.43"/>
<text text-anchor="middle" x="244.66" y="-96.21" font-family="Helvetica,sans-Serif" font-size="10.00" fill="#000000">software_patterns.</text>
<text text-anchor="middle" x="244.66" y="-85.21" font-family="Helvetica,sans-Serif" font-size="10.00" fill="#000000">subclass_registry</text>
</g>
<!-- software_patterns_subclass_registry&#45;&gt;software_patterns -->
<g id="edge7" class="edge">
<title>software_patterns_subclass_registry&#45;&gt;software_patterns</title><style>.edge>path:hover{stroke-width:8}</style>
<path fill="none" stroke="black" d="M267.17,-72.59C277.96,-63.19 290.96,-51.86 302.22,-42.04"/>
<polygon fill="#80c040" stroke="black" points="304.82,-44.42 310.06,-35.21 300.22,-39.14 304.82,-44.42"/>
</g>
<!-- types -->
<g id="node7" class="node">
<title>types</title><style>.edge>path:hover{stroke-width:8}</style>
<ellipse fill="#47c2c2" stroke="black" cx="332.66" cy="-277.43" rx="27" ry="18"/>
<text text-anchor="middle" x="332.66" y="-274.93" font-family="Helvetica,sans-Serif" font-size="10.00" fill="#000000">types</text>
</g>
<!-- types&#45;&gt;software_patterns_memoize -->
<g id="edge8" class="edge">
<title>types&#45;&gt;software_patterns_memoize</title><style>.edge>path:hover{stroke-width:8}</style>
<path fill="none" stroke="black" d="M314.59,-263.61C272.29,-233.63 166.25,-158.44 110.76,-119.1"/>
<polygon fill="#47c2c2" stroke="black" points="112.49,-116.03 102.3,-113.1 108.44,-121.74 112.49,-116.03"/>
</g>
<!-- types&#45;&gt;typing -->
<g id="edge9" class="edge">
<title>types&#45;&gt;typing</title><style>.edge>path:hover{stroke-width:8}</style>
<path fill="none" stroke="black" d="M348.66,-262.6C360.42,-252.43 376.6,-238.46 389.87,-226.99"/>
<polygon fill="#47c2c2" stroke="black" points="392.41,-229.41 397.69,-220.23 387.84,-224.12 392.41,-229.41"/>
</g>
<!-- typing&#45;&gt;software_patterns_memoize -->
<g id="edge10" class="edge">
<title>typing&#45;&gt;software_patterns_memoize</title><style>.edge>path:hover{stroke-width:8}</style>
<path fill="none" stroke="black" d="M417.58,-187.22C419.15,-176.34 419.42,-162.33 413.66,-151.43"/>
<path fill="none" stroke="black" d="M413.66,-150.43C387.04,-100.01 215.66,-125.11 159.66,-114.43 153.38,-113.23 146.85,-111.87 140.35,-110.43"/>
<polygon fill="#7a24d0" stroke="black" points="140.7,-106.92 130.17,-108.13 139.15,-113.75 140.7,-106.92"/>
</g>
<!-- typing&#45;&gt;software_patterns_notification -->
<g id="edge11" class="edge">
<title>typing&#45;&gt;software_patterns_notification</title><style>.edge>path:hover{stroke-width:8}</style>
<path fill="none" stroke="black" d="M413.66,-150.43C408.26,-140.2 466.83,-122.75 516.48,-109.99"/>
<polygon fill="#7a24d0" stroke="black" points="517.44,-113.36 526.27,-107.51 515.72,-106.57 517.44,-113.36"/>
</g>
<!-- typing&#45;&gt;software_patterns_proxy -->
<g id="edge12" class="edge">
<title>typing&#45;&gt;software_patterns_proxy</title><style>.edge>path:hover{stroke-width:8}</style>
<path fill="none" stroke="black" d="M413.66,-150.43C409.58,-142.7 408.35,-133.49 408.49,-124.79"/>
<polygon fill="#7a24d0" stroke="black" points="411.99,-124.79 409.22,-114.57 405.01,-124.29 411.99,-124.79"/>
</g>
<!-- typing&#45;&gt;software_patterns_subclass_registry -->
<g id="edge13" class="edge">
<title>typing&#45;&gt;software_patterns_subclass_registry</title><style>.edge>path:hover{stroke-width:8}</style>
<path fill="none" stroke="black" d="M413.66,-150.43C408.4,-140.46 354.31,-123.61 308.72,-110.95"/>
<polygon fill="#7a24d0" stroke="black" points="309.42,-107.51 298.85,-108.24 307.56,-114.26 309.42,-107.51"/>
</g>
</g>
</svg>
