<?xml version="1.0" encoding="UTF-8" standalone="no"?>
<!DOCTYPE svg PUBLIC "-//W3C//DTD SVG 1.1//EN"
 "http://www.w3.org/Graphics/SVG/1.1/DTD/svg11.dtd">
<!-- Generated by graphviz version 2.43.0 (0)
 -->
<!-- Title: G Pages: 1 -->
<svg width="835pt" height="303pt"
 viewBox="0.00 0.00 835.32 303.43" xmlns="http://www.w3.org/2000/svg" xmlns:xlink="http://www.w3.org/1999/xlink">
<g id="graph0" class="graph" transform="scale(1 1) rotate(0) translate(4 299.43)">
<title>G</title><style>.edge>path:hover{stroke-width:8}</style>
<polygon fill="white" stroke="transparent" points="-4,4 -4,-299.43 831.32,-299.43 831.32,4 -4,4"/>
<!-- abc -->
<g id="node1" class="node">
<title>abc</title><style>.edge>path:hover{stroke-width:8}</style>
<ellipse fill="#ce3b3b" stroke="black" cx="509.66" cy="-277.43" rx="27" ry="18"/>
<text text-anchor="middle" x="509.66" y="-274.93" font-family="Helvetica,sans-Serif" font-size="10.00" fill="#ffffff">abc</text>
</g>
<!-- software_patterns_notification -->
<g id="node4" class="node">
<title>software_patterns_notification</title><style>.edge>path:hover{stroke-width:8}</style>
<ellipse fill="#7ab83d" stroke="black" cx="751.66" cy="-93.21" rx="75.82" ry="21.43"/>
<text text-anchor="middle" x="751.66" y="-96.21" font-family="Helvetica,sans-Serif" font-size="10.00" fill="#000000">software_patterns.</text>
<text text-anchor="middle" x="751.66" y="-85.21" font-family="Helvetica,sans-Serif" font-size="10.00" fill="#000000">notification</text>
</g>
<!-- abc&#45;&gt;software_patterns_notification -->
<g id="edge1" class="edge">
<title>abc&#45;&gt;software_patterns_notification</title><style>.edge>path:hover{stroke-width:8}</style>
<path fill="none" stroke="black" d="M751.66,-150.43C748.25,-142.45 747.21,-133.24 747.3,-124.61"/>
<polygon fill="#ce3b3b" stroke="black" points="750.8,-124.68 747.89,-114.5 743.82,-124.27 750.8,-124.68"/>
</g>
<!-- software_patterns_proxy -->
<g id="node5" class="node">
<title>software_patterns_proxy</title><style>.edge>path:hover{stroke-width:8}</style>
<ellipse fill="#7ab83d" stroke="black" cx="582.66" cy="-93.21" rx="75.82" ry="21.43"/>
<text text-anchor="middle" x="582.66" y="-96.21" font-family="Helvetica,sans-Serif" font-size="10.00" fill="#000000">software_patterns.</text>
<text text-anchor="middle" x="582.66" y="-85.21" font-family="Helvetica,sans-Serif" font-size="10.00" fill="#000000">proxy</text>
</g>
<!-- abc&#45;&gt;software_patterns_proxy -->
<g id="edge2" class="edge">
<title>abc&#45;&gt;software_patterns_proxy</title><style>.edge>path:hover{stroke-width:8}</style>
<path fill="none" stroke="black" d="M536.32,-274.12C608.22,-266.7 797.69,-238.61 751.66,-151.43"/>
<path fill="none" stroke="black" d="M751.66,-150.43C747.23,-140.06 693.03,-123.27 647.18,-110.73"/>
<polygon fill="#ce3b3b" stroke="black" points="647.82,-107.28 637.25,-108.05 645.99,-114.04 647.82,-107.28"/>
</g>
<!-- typing -->
<g id="node9" class="node">
<title>typing</title><style>.edge>path:hover{stroke-width:8}</style>
<ellipse fill="#7a18dd" stroke="black" cx="413.66" cy="-205.43" rx="27.84" ry="18"/>
<text text-anchor="middle" x="413.66" y="-202.93" font-family="Helvetica,sans-Serif" font-size="10.00" fill="#ffffff">typing</text>
</g>
<!-- abc&#45;&gt;typing -->
<g id="edge3" class="edge">
<title>abc&#45;&gt;typing</title><style>.edge>path:hover{stroke-width:8}</style>
<path fill="none" stroke="black" d="M492.05,-263.59C477.39,-252.9 456.31,-237.53 439.7,-225.42"/>
<polygon fill="#ce3b3b" stroke="black" points="441.62,-222.48 431.48,-219.42 437.5,-228.14 441.62,-222.48"/>
</g>
<!-- software_patterns -->
<g id="node2" class="node">
<title>software_patterns</title><style>.edge>path:hover{stroke-width:8}</style>
<ellipse fill="#6b9640" stroke="black" cx="413.66" cy="-18" rx="61.44" ry="18"/>
<text text-anchor="middle" x="413.66" y="-15.5" font-family="Helvetica,sans-Serif" font-size="10.00" fill="#ffffff">software_patterns</text>
</g>
<!-- software_patterns_memoize -->
<g id="node3" class="node">
<title>software_patterns_memoize</title><style>.edge>path:hover{stroke-width:8}</style>
<ellipse fill="#7ab83d" stroke="black" cx="75.66" cy="-93.21" rx="75.82" ry="21.43"/>
<text text-anchor="middle" x="75.66" y="-96.21" font-family="Helvetica,sans-Serif" font-size="10.00" fill="#000000">software_patterns.</text>
<text text-anchor="middle" x="75.66" y="-85.21" font-family="Helvetica,sans-Serif" font-size="10.00" fill="#000000">memoize</text>
</g>
<!-- software_patterns_memoize&#45;&gt;software_patterns -->
<g id="edge4" class="edge">
<title>software_patterns_memoize&#45;&gt;software_patterns</title><style>.edge>path:hover{stroke-width:8}</style>
<path fill="none" stroke="black" d="M131.18,-78.6C140.67,-76.35 150.44,-74.07 159.66,-72 226.21,-57.05 302.88,-41.25 354.43,-30.83"/>
<polygon fill="#7ab83d" stroke="black" points="355.29,-34.23 364.4,-28.82 353.9,-27.36 355.29,-34.23"/>
</g>
<!-- software_patterns_notification&#45;&gt;software_patterns -->
<g id="edge5" class="edge">
<title>software_patterns_notification&#45;&gt;software_patterns</title><style>.edge>path:hover{stroke-width:8}</style>
<path fill="none" stroke="black" d="M696.14,-78.6C686.65,-76.35 676.88,-74.07 667.66,-72 601.11,-57.05 524.44,-41.25 472.89,-30.83"/>
<polygon fill="#7ab83d" stroke="black" points="473.42,-27.36 462.92,-28.82 472.03,-34.23 473.42,-27.36"/>
</g>
<!-- software_patterns_proxy&#45;&gt;software_patterns -->
<g id="edge6" class="edge">
<title>software_patterns_proxy&#45;&gt;software_patterns</title><style>.edge>path:hover{stroke-width:8}</style>
<path fill="none" stroke="black" d="M543.04,-75.05C516.88,-63.72 482.65,-48.89 455.97,-37.33"/>
<polygon fill="#7ab83d" stroke="black" points="457.07,-33.99 446.51,-33.23 454.29,-40.42 457.07,-33.99"/>
</g>
<!-- software_patterns_singleton -->
<g id="node6" class="node">
<title>software_patterns_singleton</title><style>.edge>path:hover{stroke-width:8}</style>
<ellipse fill="#80c040" stroke="black" cx="244.66" cy="-93.21" rx="75.82" ry="21.43"/>
<text text-anchor="middle" x="244.66" y="-96.21" font-family="Helvetica,sans-Serif" font-size="10.00" fill="#000000">software_patterns.</text>
<text text-anchor="middle" x="244.66" y="-85.21" font-family="Helvetica,sans-Serif" font-size="10.00" fill="#000000">singleton</text>
</g>
<!-- software_patterns_singleton&#45;&gt;software_patterns -->
<g id="edge7" class="edge">
<title>software_patterns_singleton&#45;&gt;software_patterns</title><style>.edge>path:hover{stroke-width:8}</style>
<path fill="none" stroke="black" d="M284.28,-75.05C310.44,-63.72 344.67,-48.89 371.35,-37.33"/>
<polygon fill="#80c040" stroke="black" points="373.03,-40.42 380.81,-33.23 370.25,-33.99 373.03,-40.42"/>
</g>
<!-- software_patterns_subclass_registry -->
<g id="node7" class="node">
<title>software_patterns_subclass_registry</title><style>.edge>path:hover{stroke-width:8}</style>
<ellipse fill="#80c040" stroke="black" cx="413.66" cy="-93.21" rx="75.82" ry="21.43"/>
<text text-anchor="middle" x="413.66" y="-96.21" font-family="Helvetica,sans-Serif" font-size="10.00" fill="#000000">software_patterns.</text>
<text text-anchor="middle" x="413.66" y="-85.21" font-family="Helvetica,sans-Serif" font-size="10.00" fill="#000000">subclass_registry</text>
</g>
<!-- software_patterns_subclass_registry&#45;&gt;software_patterns -->
<g id="edge8" class="edge">
<title>software_patterns_subclass_registry&#45;&gt;software_patterns</title><style>.edge>path:hover{stroke-width:8}</style>
<path fill="none" stroke="black" d="M413.66,-71.82C413.66,-63.97 413.66,-54.86 413.66,-46.45"/>
<polygon fill="#80c040" stroke="black" points="417.16,-46.31 413.66,-36.31 410.16,-46.31 417.16,-46.31"/>
</g>
<!-- types -->
<g id="node8" class="node">
<title>types</title><style>.edge>path:hover{stroke-width:8}</style>
<ellipse fill="#47c2c2" stroke="black" cx="290.66" cy="-277.43" rx="27" ry="18"/>
<text text-anchor="middle" x="290.66" y="-274.93" font-family="Helvetica,sans-Serif" font-size="10.00" fill="#000000">types</text>
</g>
<!-- types&#45;&gt;software_patterns_memoize -->
<g id="edge9" class="edge">
<title>types&#45;&gt;software_patterns_memoize</title><style>.edge>path:hover{stroke-width:8}</style>
<path fill="none" stroke="black" d="M274.5,-262.73C238.85,-232.51 152.94,-159.71 106.58,-120.41"/>
<polygon fill="#47c2c2" stroke="black" points="108.56,-117.51 98.67,-113.71 104.04,-122.85 108.56,-117.51"/>
</g>
<!-- types&#45;&gt;typing -->
<g id="edge10" class="edge">
<title>types&#45;&gt;typing</title><style>.edge>path:hover{stroke-width:8}</style>
<path fill="none" stroke="black" d="M310.7,-265.02C330.68,-253.65 361.6,-236.06 384.34,-223.11"/>
<polygon fill="#47c2c2" stroke="black" points="386.26,-226.05 393.22,-218.06 382.8,-219.96 386.26,-226.05"/>
</g>
<!-- typing&#45;&gt;software_patterns_memoize -->
<g id="edge11" class="edge">
<title>typing&#45;&gt;software_patterns_memoize</title><style>.edge>path:hover{stroke-width:8}</style>
<path fill="none" stroke="black" d="M413.66,-187.24C413.66,-176.87 413.66,-163.39 413.66,-151.43"/>
<path fill="none" stroke="black" d="M413.66,-150.43C413.66,-93.42 215.66,-125.11 159.66,-114.43 153.38,-113.23 146.85,-111.87 140.35,-110.43"/>
<polygon fill="#7a18dd" stroke="black" points="140.7,-106.92 130.17,-108.13 139.15,-113.75 140.7,-106.92"/>
</g>
<!-- typing&#45;&gt;software_patterns_notification -->
<g id="edge12" class="edge">
<title>typing&#45;&gt;software_patterns_notification</title><style>.edge>path:hover{stroke-width:8}</style>
<path fill="none" stroke="black" d="M413.66,-150.43C413.66,-93.42 611.66,-125.11 667.66,-114.43 673.95,-113.23 680.47,-111.87 686.97,-110.43"/>
<polygon fill="#7a18dd" stroke="black" points="688.17,-113.75 697.15,-108.13 686.62,-106.92 688.17,-113.75"/>
</g>
<!-- typing&#45;&gt;software_patterns_proxy -->
<g id="edge13" class="edge">
<title>typing&#45;&gt;software_patterns_proxy</title><style>.edge>path:hover{stroke-width:8}</style>
<path fill="none" stroke="black" d="M413.66,-150.43C413.66,-139.1 469.06,-122.31 516.42,-110.03"/>
<polygon fill="#7a18dd" stroke="black" points="517.57,-113.36 526.39,-107.49 515.83,-106.57 517.57,-113.36"/>
</g>
<!-- typing&#45;&gt;software_patterns_singleton -->
<g id="edge14" class="edge">
<title>typing&#45;&gt;software_patterns_singleton</title><style>.edge>path:hover{stroke-width:8}</style>
<path fill="none" stroke="black" d="M413.66,-150.43C413.66,-139.1 358.26,-122.31 310.9,-110.03"/>
<polygon fill="#7a18dd" stroke="black" points="311.49,-106.57 300.93,-107.49 309.76,-113.36 311.49,-106.57"/>
</g>
<!-- typing&#45;&gt;software_patterns_subclass_registry -->
<g id="edge15" class="edge">
<title>typing&#45;&gt;software_patterns_subclass_registry</title><style>.edge>path:hover{stroke-width:8}</style>
<path fill="none" stroke="black" d="M413.66,-150.43C413.66,-142.05 413.66,-132.98 413.66,-124.62"/>
<polygon fill="#7a18dd" stroke="black" points="417.16,-124.51 413.66,-114.51 410.16,-124.51 417.16,-124.51"/>
</g>
</g>
</svg>
